<svg width="16" height="14" viewBox="0 0 16 14" fill="none" xmlns="http://www.w3.org/2000/svg">
<path fill-rule="evenodd" clip-rule="evenodd" d="M3.51776 2.06819L3.89458 3.5L5.08029 8.00535C5.55827 9.82155 7.56853 10.757 9.26578 9.95302L13.7841 7.81273C14.8318 7.31642 15.4998 6.26085 15.4998 5.10152V4C15.4998 2.89543 14.6044 2 13.4998 2H5.05562L4.90693 1.46471C4.66647 0.599073 3.87831 0 2.97989 0H1.25006C0.835848 0 0.500061 0.335786 0.500061 0.75C0.500061 1.16421 0.835848 1.5 1.25006 1.5H2.97989C3.20449 1.5 3.40154 1.64977 3.46165 1.86618L3.51776 2.06819ZM8.62364 8.59742L13.142 6.45712C13.6658 6.20897 13.9998 5.68119 13.9998 5.10152V4C13.9998 3.72386 13.776 3.5 13.4998 3.5H5.44566L6.53089 7.62359C6.76988 8.53168 7.77501 8.99941 8.62364 8.59742ZM12.5001 13.75C13.4666 13.75 14.2501 12.9665 14.2501 12C14.2501 11.0335 13.4666 10.25 12.5001 10.25C11.5336 10.25 10.7501 11.0335 10.7501 12C10.7501 12.9665 11.5336 13.75 12.5001 13.75ZM5.25006 12C5.25006 12.9665 4.46656 13.75 3.50006 13.75C2.53356 13.75 1.75006 12.9665 1.75006 12C1.75006 11.0335 2.53356 10.25 3.50006 10.25C4.46656 10.25 5.25006 11.0335 5.25006 12Z" fill="black"/>
</svg>
