<svg width="36" height="32" viewBox="0 0 36 32" fill="none" xmlns="http://www.w3.org/2000/svg">
<path d="M6.60261 2.42829L6.87358 3H7.50625H33.1937C34.1813 3 34.899 3.93892 34.6412 4.88785L34.6406 4.89005L32.0785 14.4075C31.6647 15.9361 30.2774 17 28.7 17H10.6687H9.46148L9.68623 18.1862L10.0237 19.9674L10.0247 19.9724C10.1242 20.4835 10.3803 21.0549 10.7321 21.5139C11.0582 21.9393 11.6511 22.5 12.4812 22.5H30.5C30.7653 22.5 30.9782 22.6999 30.9984 22.9595C30.9785 22.9641 30.9547 22.9688 30.9267 22.9733C30.8183 22.9906 30.6781 23 30.5 23H12.4812C10.7983 23 9.35573 21.8034 9.04514 20.1582L9.04485 20.1567L5.82095 3.22509C5.82072 3.22384 5.82049 3.2226 5.82026 3.22135C5.68556 2.50014 5.05711 2 4.34375 2H1.5C1.22103 2 1 1.77897 1 1.5C1 1.22103 1.22103 1 1.5 1H4.34375C5.32521 1 6.19624 1.57089 6.60261 2.42829ZM30.9965 23.0514C30.9965 23.0514 30.9965 23.0511 30.9967 23.0505L30.9965 23.0514ZM9 29C9 28.7374 9.05173 28.4773 9.15224 28.2346C9.25275 27.992 9.40007 27.7715 9.58579 27.5858C9.7715 27.4001 9.99198 27.2528 10.2346 27.1522C10.4773 27.0517 10.7374 27 11 27C11.2626 27 11.5227 27.0517 11.7654 27.1522C12.008 27.2528 12.2285 27.4001 12.4142 27.5858C12.5999 27.7715 12.7472 27.992 12.8478 28.2346C12.9483 28.4773 13 28.7374 13 29C13 29.2626 12.9483 29.5227 12.8478 29.7654C12.7472 30.008 12.5999 30.2285 12.4142 30.4142C12.2285 30.5999 12.008 30.7472 11.7654 30.8478C11.5227 30.9483 11.2626 31 11 31C10.7374 31 10.4773 30.9483 10.2346 30.8478C9.99198 30.7472 9.7715 30.5999 9.58579 30.4142C9.40007 30.2285 9.25275 30.008 9.15224 29.7654C9.05173 29.5227 9 29.2626 9 29ZM29 27C29.5304 27 30.0391 27.2107 30.4142 27.5858C30.7893 27.9609 31 28.4696 31 29C31 29.5304 30.7893 30.0391 30.4142 30.4142C30.0391 30.7893 29.5304 31 29 31C28.4696 31 27.9609 30.7893 27.5858 30.4142C27.2107 30.0391 27 29.5304 27 29C27 28.4696 27.2107 27.9609 27.5858 27.5858C27.9609 27.2107 28.4696 27 29 27Z" stroke="black" stroke-width="2"/>
</svg>
