<svg width="64" height="64" viewBox="0 0 64 64" fill="none" xmlns="http://www.w3.org/2000/svg">
<rect width="62.7586" height="62.7586" rx="31.3793" transform="matrix(-1 0 0 1 63.7241 0.620605)" fill="black" fill-opacity="0.05"/>
<path d="M51.6552 30.7931C52.3217 30.7931 52.862 31.3334 52.862 32C52.862 32.6666 52.3217 33.2069 51.6552 33.2069V30.7931ZM12.1811 32.8534C11.7097 32.3821 11.7097 31.6179 12.1811 31.1466L19.8617 23.466C20.333 22.9946 21.0972 22.9946 21.5685 23.466C22.0398 23.9373 22.0398 24.7014 21.5685 25.1728L14.7413 32L21.5685 38.8272C22.0398 39.2986 22.0398 40.0627 21.5685 40.534C21.0972 41.0054 20.333 41.0054 19.8617 40.534L12.1811 32.8534ZM51.6552 33.2069H13.0345V30.7931H51.6552V33.2069Z" fill="black"/>
</svg>
