<svg width="32" height="32" viewBox="0 0 32 32" fill="none" xmlns="http://www.w3.org/2000/svg">
<g clip-path="url(#clip0_1042_90)">
<path d="M18.8395 17.5484C6.78497 6.49844 22.7104 1.11828 32.0008 0L31.4846 6.19355L21.9362 31.2258H19.8717L16.0008 23.7419C16.0008 23.7419 21.1621 19.6774 18.8395 17.5484Z" fill="#0E52FF"/>
<path d="M0 32V0H10.8387C11.2516 9.70322 3.78495 25.3763 0 32Z" fill="#FBE366"/>
<path fill-rule="evenodd" clip-rule="evenodd" d="M0 32H32V0H0V32ZM1.54839 1.54839V27.47C3.07741 24.4504 4.78576 20.7448 6.2708 16.8773C8.31466 11.5544 9.90076 6.0117 10.0667 1.54839H1.54839ZM11.0688 6.17486C10.3854 9.80689 9.14346 13.7155 7.71629 17.4324C5.81167 22.3926 3.5472 27.0859 1.74071 30.4516H2.23221C6.7211 28.873 12.0209 26.455 15.2927 23.6467C13.5512 18.4405 12.0883 11.7934 11.0688 6.17486ZM15.8391 25.2058C13.314 27.2422 9.88565 29.0341 6.52855 30.4516H18.3334C18.1851 30.2305 18.0413 29.9999 17.9016 29.7622C17.1753 28.526 16.4863 26.9647 15.8391 25.2058ZM20.283 30.4516C19.9547 30.089 19.6038 29.6028 19.2366 28.9778C18.5001 27.7242 17.7787 26.0546 17.0876 24.1042C18.523 22.7066 19.5729 21.136 19.7987 19.4277C20.0514 17.5155 19.2493 15.6377 17.2921 13.8762C15.3425 12.1215 14.9411 10.6668 15.2248 9.47999C15.529 8.20718 16.6804 6.9355 18.5206 5.73176C21.2694 3.9337 25.2124 2.50773 28.7979 1.54839H30.4516V3.85374C27.7265 16.5472 23.5234 26.1417 21.1591 30.4516H20.283ZM22.9157 30.4516H30.4516V10.4263C27.989 19.5375 24.9593 26.5555 22.9157 30.4516ZM23.6595 1.54839C21.476 2.35594 19.3754 3.32236 17.673 4.43598C15.739 5.70105 14.1645 7.25518 13.7188 9.12001C13.2525 11.0708 14.0768 13.0656 16.2563 15.0271C17.9538 16.5548 18.4308 17.9596 18.2636 19.2248C18.1249 20.2743 17.5281 21.3598 16.5311 22.4545C14.4531 15.9977 12.7876 7.49821 11.8557 1.54839H23.6595Z" fill="black"/>
</g>
<defs>
<clipPath id="clip0_1042_90">
<rect width="32" height="32" fill="white"/>
</clipPath>
</defs>
</svg>
