<svg width="58" height="57" viewBox="0 0 58 57" fill="none" xmlns="http://www.w3.org/2000/svg">
<g clip-path="url(#clip0_335_113)">
<path d="M33.6721 31.2581C12.1261 11.5754 40.591 1.99194 57.1964 0L56.2739 11.0323L39.2072 55.621H35.5172L28.5983 42.2903C28.5983 42.2903 37.8235 35.0504 33.6721 31.2581Z" fill="#0E52FF"/>
<path d="M0 57V0H19.3729C20.1109 17.2839 6.76515 45.2016 0 57Z" fill="#FBE366"/>
<path fill-rule="evenodd" clip-rule="evenodd" d="M0 57H57.1963V0H0V57ZM2.75806 2.75806V48.9579C5.4947 43.5741 8.55431 36.9624 11.2133 30.0612C14.8665 20.5799 17.7012 10.7075 17.9977 2.75806H2.75806ZM19.7842 10.9738C18.5637 17.4511 16.3413 24.4235 13.787 31.0529C10.383 39.8876 6.3359 48.2468 3.10714 54.2419H3.99139C12.0152 51.43 21.4892 47.1226 27.3382 42.1198C24.223 32.8383 21.6066 20.9866 19.7842 10.9738ZM28.3133 44.8932C23.8001 48.5224 17.67 51.7159 11.6672 54.2419H32.7728C32.5082 53.8487 32.2515 53.4384 32.0022 53.0157C30.703 50.8121 29.4708 48.0288 28.3133 44.8932ZM36.25 54.2419C35.6625 53.5955 35.0348 52.7288 34.3781 51.6149C33.0619 49.3825 31.7729 46.4095 30.5379 42.9364C33.1027 40.4477 34.9794 37.6501 35.383 34.6061C35.835 31.1978 34.4002 27.8523 30.9027 24.7153C27.417 21.589 26.7012 18.9987 27.2076 16.8873C27.7511 14.6211 29.8088 12.3557 33.099 10.2109C38.0131 7.00743 45.0621 4.46704 51.4717 2.75806H54.4382V6.84193C49.5672 29.4642 42.0506 46.5635 37.8235 54.2419H36.25ZM40.9549 54.2419H54.4382V18.52C50.0342 34.7739 44.6117 47.2939 40.9549 54.2419ZM42.2902 2.75806C38.3885 4.19626 34.6349 5.9173 31.5928 7.9004C28.137 10.1532 25.3226 12.9212 24.5256 16.244C23.6915 19.7214 25.1666 23.2755 29.0611 26.7685C32.0961 29.4906 32.9475 31.9921 32.6489 34.2435C32.4008 36.1147 31.3317 38.0506 29.5451 40.0035C25.8298 28.502 22.852 13.3584 21.186 2.75806H42.2902Z" fill="#FCFCFC"/>
</g>
<defs>
<clipPath id="clip0_335_113">
<rect width="57.1963" height="57" fill="white"/>
</clipPath>
</defs>
</svg>
