<svg width="34" height="36" viewBox="0 0 34 36" fill="none" xmlns="http://www.w3.org/2000/svg">
<path d="M24.5 8.30769C24.5 12.3222 21.1638 15.6154 17 15.6154C12.8362 15.6154 9.5 12.3222 9.5 8.30769C9.5 4.29321 12.8362 1 17 1C21.1638 1 24.5 4.29322 24.5 8.30769ZM32.8846 34.1278C32.9361 34.5444 32.5906 35 32 35H2C1.40942 35 1.06386 34.5444 1.11541 34.1278C1.28922 32.7233 1.65821 31.345 2.21477 30.0318C3.017 28.1389 4.19347 26.4174 5.67815 24.9663C7.16289 23.5152 8.92676 22.3629 10.8696 21.5763C12.8125 20.7897 14.8957 20.3846 17 20.3846C19.1043 20.3846 21.1875 20.7897 23.1304 21.5763C25.0732 22.3629 26.8371 23.5152 28.3218 24.9663C29.8065 26.4174 30.983 28.1389 31.7852 30.0318C32.3418 31.345 32.7108 32.7233 32.8846 34.1278Z" stroke="black" stroke-width="2"/>
</svg>
