<svg width="63" height="64" viewBox="0 0 63 64" fill="none" xmlns="http://www.w3.org/2000/svg">
<path d="M0.0344849 31.9999C0.0344849 14.6696 14.0835 0.620605 31.4138 0.620605C48.7441 0.620605 62.7931 14.6696 62.7931 31.9999C62.7931 49.3302 48.7441 63.3792 31.4138 63.3792C14.0835 63.3792 0.0344849 49.3302 0.0344849 31.9999Z" fill="black" fill-opacity="0.05"/>
<path d="M12.1035 30.7931C11.4369 30.7931 10.8966 31.3334 10.8966 32C10.8966 32.6666 11.4369 33.2069 12.1035 33.2069V30.7931ZM51.5775 32.8534C52.0489 32.3821 52.0489 31.6179 51.5775 31.1466L43.8969 23.466C43.4256 22.9946 42.6614 22.9946 42.1901 23.466C41.7188 23.9373 41.7188 24.7014 42.1901 25.1728L49.0173 32L42.1901 38.8272C41.7188 39.2986 41.7188 40.0627 42.1901 40.534C42.6614 41.0054 43.4256 41.0054 43.8969 40.534L51.5775 32.8534ZM12.1035 33.2069H50.7241V30.7931H12.1035V33.2069Z" fill="black"/>
</svg>
